{
  "asset": {
    "generator": "Khronos glTF Blender I/O v4.5.47",
    "version": "2.0"
  },
  "scene": 0,
  "scenes": [
    {
      "name": "Scene",
      "nodes": [0]
    }
  ],
  "nodes": [
    {
      "mesh": 0,
      "name": "Circle",
      "scale": [0.578030526638031, 0.578030526638031, 0.578030526638031],
      "translation": [
        0.3636123239994049, 3.2836265563964844, 0.006171047687530518
      ]
    }
  ],
  "materials": [
    {
      "doubleSided": true,
      "name": "Material.005",
      "pbrMetallicRoughness": {
        "baseColorFactor": [
          0.1319810450077057, 0.1319810450077057, 0.1319810450077057, 1
        ],
        "roughnessFactor": 0.3968254029750824
      }
    },
    {
      "doubleSided": true,
      "name": "Material.003",
      "pbrMetallicRoughness": {
        "baseColorFactor": [
          0.07834965735673904, 0.07834965735673904, 0.07834965735673904, 1
        ],
        "roughnessFactor": 0.317460298538208
      }
    },
    {
      "doubleSided": true,
      "name": "Material.004",
      "pbrMetallicRoughness": {
        "baseColorFactor": [
          0.2842298448085785, 0.02337815798819065, 0.027031682431697845, 1
        ],
        "metallicFactor": 0
      }
    }
  ],
  "meshes": [
    {
      "name": "Circle.001",
      "primitives": [
        {
          "attributes": {
            "POSITION": 0,
            "NORMAL": 1,
            "TEXCOORD_0": 2
          },
          "indices": 3,
          "material": 0
        },
        {
          "attributes": {
            "POSITION": 4,
            "NORMAL": 5,
            "TEXCOORD_0": 6
          },
          "indices": 7,
          "material": 1
        },
        {
          "attributes": {
            "POSITION": 8,
            "NORMAL": 9,
            "TEXCOORD_0": 10
          },
          "indices": 11,
          "material": 2
        }
      ]
    }
  ],
  "accessors": [
    {
      "bufferView": 0,
      "componentType": 5126,
      "count": 148,
      "max": [0.44357138872146606, 0.04293350875377655, 0.26164960861206055],
      "min": [-0.4382619857788086, -0.01619361713528633, -0.26531997323036194],
      "type": "VEC3"
    },
    {
      "bufferView": 1,
      "componentType": 5126,
      "count": 148,
      "type": "VEC3"
    },
    {
      "bufferView": 2,
      "componentType": 5126,
      "count": 148,
      "type": "VEC2"
    },
    {
      "bufferView": 3,
      "componentType": 5123,
      "count": 1008,
      "type": "SCALAR"
    },
    {
      "bufferView": 4,
      "componentType": 5126,
      "count": 10002,
      "max": [0.9567912817001343, 0.0996999740600586, 1.5751690864562988],
      "min": [-2.2148990631103516, -5.530155181884766, -1.5965211391448975],
      "type": "VEC3"
    },
    {
      "bufferView": 5,
      "componentType": 5126,
      "count": 10002,
      "type": "VEC3"
    },
    {
      "bufferView": 6,
      "componentType": 5126,
      "count": 10002,
      "type": "VEC2"
    },
    {
      "bufferView": 7,
      "componentType": 5123,
      "count": 58368,
      "type": "SCALAR"
    },
    {
      "bufferView": 8,
      "componentType": 5126,
      "count": 2145,
      "max": [0.9567912817001343, -0.6083817481994629, 1.5751690864562988],
      "min": [-2.2148990631103516, -4.916151523590088, -1.5965211391448975],
      "type": "VEC3"
    },
    {
      "bufferView": 9,
      "componentType": 5126,
      "count": 2145,
      "type": "VEC3"
    },
    {
      "bufferView": 10,
      "componentType": 5126,
      "count": 2145,
      "type": "VEC2"
    },
    {
      "bufferView": 11,
      "componentType": 5123,
      "count": 12288,
      "type": "SCALAR"
    }
  ],
  "bufferViews": [
    {
      "buffer": 0,
      "byteLength": 1776,
      "byteOffset": 0,
      "target": 34962
    },
    {
      "buffer": 0,
      "byteLength": 1776,
      "byteOffset": 1776,
      "target": 34962
    },
    {
      "buffer": 0,
      "byteLength": 1184,
      "byteOffset": 3552,
      "target": 34962
    },
    {
      "buffer": 0,
      "byteLength": 2016,
      "byteOffset": 4736,
      "target": 34963
    },
    {
      "buffer": 0,
      "byteLength": 120024,
      "byteOffset": 6752,
      "target": 34962
    },
    {
      "buffer": 0,
      "byteLength": 120024,
      "byteOffset": 126776,
      "target": 34962
    },
    {
      "buffer": 0,
      "byteLength": 80016,
      "byteOffset": 246800,
      "target": 34962
    },
    {
      "buffer": 0,
      "byteLength": 116736,
      "byteOffset": 326816,
      "target": 34963
    },
    {
      "buffer": 0,
      "byteLength": 25740,
      "byteOffset": 443552,
      "target": 34962
    },
    {
      "buffer": 0,
      "byteLength": 25740,
      "byteOffset": 469292,
      "target": 34962
    },
    {
      "buffer": 0,
      "byteLength": 17160,
      "byteOffset": 495032,
      "target": 34962
    },
    {
      "buffer": 0,
      "byteLength": 24576,
      "byteOffset": 512192,
      "target": 34963
    }
  ],
  "buffers": [
    {
      "byteLength": 536768,
      "uri": "lata.bin"
    }
  ]
}
